<svg xmlns="http://www.w3.org/2000/svg" xmlns:xlink="http://www.w3.org/1999/xlink" id="Layer_1" x="0" y="0" enable-background="new 0 0 512 512" version="1.1" viewBox="0 0 512 512" xml:space="preserve"><circle cx="256" cy="256" r="256" fill="#324A5E"/><path fill="#2B3B4E" d="M211.501,413.844l-10.855,12.915l83.673,83.673c126.498-13.924,225.237-119.999,227.621-249.639	L383.569,132.425l-40.501,46.794l-87.454-87.743l-15.805,12.99l-15.303,14.117l15.112,15.112v130.591l-92.403-93.079l-16.198,7.361	l-24.342,32.534l96.959,96.959l-7.187,4.089l35.557,35.557l-14.539,43.701L211.501,413.844z"/><g><rect width="10.343" height="199.111" x="235.744" y="106.02" fill="#CFDBE6"/><rect width="120.672" height="10.342" x="109.47" y="228.847" fill="#CFDBE6" transform="matrix(-0.7071 -0.7071 0.7071 -0.7071 124.4015 519.5651)"/><rect width="89.954" height="10.342" x="282.147" y="285.741" fill="#CFDBE6" transform="matrix(-0.9487 -0.3162 0.3162 -0.9487 545.4778 670.3337)"/><rect width="10.342" height="120.672" x="306.861" y="145.233" fill="#CFDBE6" transform="matrix(-0.7071 -0.7071 0.7071 -0.7071 387.3127 571.5693)"/><rect width="10.341" height="117.271" x="221.528" y="303.353" fill="#CFDBE6" transform="matrix(-0.9701 -0.2425 0.2425 -0.9701 358.8431 768.1487)"/></g><circle cx="240.916" cy="276.687" r="56.889" fill="#F9B54C"/><path fill="#F4A200" d="M240.916,219.798c31.418,0,56.889,25.471,56.889,56.889s-25.471,56.889-56.889,56.889V219.798z"/><g><circle cx="127.138" cy="191.354" r="28.444" fill="#4CDBC4"/><circle cx="369.778" cy="305.131" r="28.444" fill="#4CDBC4"/><circle cx="240.916" cy="106.02" r="20.687" fill="#4CDBC4"/></g><path fill="#05BEA6" d="M240.916,85.333c11.424,0,20.687,9.263,20.687,20.687s-9.263,20.687-20.687,20.687V85.333z"/><g><circle cx="214.195" cy="411.152" r="20.687" fill="#4CDBC4"/><circle cx="362.451" cy="155.152" r="31.03" fill="#4CDBC4"/></g><g><path fill="#05BEA6" d="M127.138,162.909c15.71,0,28.444,12.734,28.444,28.444s-12.734,28.444-28.444,28.444V162.909z"/><path fill="#05BEA6" d="M369.778,276.687c15.71,0,28.444,12.734,28.444,28.444s-12.734,28.444-28.444,28.444V276.687z"/><path fill="#05BEA6" d="M214.195,390.465c11.424,0,20.687,9.263,20.687,20.687c0,11.424-9.263,20.687-20.687,20.687V390.465 z"/><path fill="#05BEA6" d="M362.451,124.121c17.137,0,31.03,13.893,31.03,31.03s-13.893,31.03-31.03,31.03V124.121z"/></g></svg>